<?xml version="1.0" encoding="UTF-8"?>
<!DOCTYPE svg PUBLIC "-//W3C//DTD SVG 1.1//EN" "http://www.w3.org/Graphics/SVG/1.1/DTD/svg11.dtd">
<svg xmlns="http://www.w3.org/2000/svg" version="1.1" width="225px" height="225px" style="shape-rendering:geometricPrecision; text-rendering:geometricPrecision; image-rendering:optimizeQuality; fill-rule:evenodd; clip-rule:evenodd" xmlns:xlink="http://www.w3.org/1999/xlink">
<g><path style="opacity:1" fill="#000000" d="M 7.5,-0.5 C 8.83333,-0.5 10.1667,-0.5 11.5,-0.5C 36.7735,2.32808 62.1068,5.49475 87.5,9C 91.1303,12.0498 92.297,15.8831 91,20.5C 84.8651,27.636 78.3651,34.4693 71.5,41C 108.667,78.1667 145.833,115.333 183,152.5C 189.531,145.635 196.364,139.135 203.5,133C 208.117,131.703 211.95,132.87 215,136.5C 218.635,161.879 221.802,187.212 224.5,212.5C 224.5,213.833 224.5,215.167 224.5,216.5C 223.59,218.019 222.757,219.685 222,221.5C 220.124,222.609 218.291,223.609 216.5,224.5C 214.833,224.5 213.167,224.5 211.5,224.5C 188.677,221.75 165.677,219.25 142.5,217C 133.154,216.015 129.987,211.182 133,202.5C 139.124,195.675 145.624,189.175 152.5,183C 115.333,145.833 78.1667,108.667 41,71.5C 34.5,78 28,84.5 21.5,91C 12.8183,94.0126 7.985,90.8459 7,81.5C 4.75024,58.3228 2.25024,35.3228 -0.5,12.5C -0.5,10.8333 -0.5,9.16667 -0.5,7.5C 0.535619,3.13094 3.20229,0.464277 7.5,-0.5 Z"/></g>
</svg>
