<?xml version="1.0" encoding="UTF-8"?>
<!DOCTYPE svg PUBLIC "-//W3C//DTD SVG 1.1//EN" "http://www.w3.org/Graphics/SVG/1.1/DTD/svg11.dtd">
<svg xmlns="http://www.w3.org/2000/svg" version="1.1" width="512px" height="608px" style="shape-rendering:geometricPrecision; text-rendering:geometricPrecision; image-rendering:optimizeQuality; fill-rule:evenodd; clip-rule:evenodd" xmlns:xlink="http://www.w3.org/1999/xlink">
<g><path style="opacity:0.996" fill="#4000a3" d="M -0.5,0.5 C -0.5,0.166667 -0.5,-0.166667 -0.5,-0.5C 65.1667,-0.5 130.833,-0.5 196.5,-0.5C 301.17,100.837 406.17,201.837 511.5,302.5C 511.5,303.167 511.5,303.833 511.5,304.5C 508.167,307.5 504.833,310.5 501.5,313.5C 501.565,313.062 501.399,312.728 501,312.5C 498.546,314.441 496.713,316.775 495.5,319.5C 488.86,325.806 482.193,332.139 475.5,338.5C 475.565,338.062 475.399,337.728 475,337.5C 472.546,339.441 470.713,341.775 469.5,344.5C 463.193,350.472 456.86,356.472 450.5,362.5C 447.167,363.833 444.833,366.167 443.5,369.5C 437.193,375.472 430.86,381.472 424.5,387.5C 421.167,388.833 418.833,391.167 417.5,394.5C 411.193,400.472 404.86,406.472 398.5,412.5C 395.167,413.833 392.833,416.167 391.5,419.5C 385.193,425.472 378.86,431.472 372.5,437.5C 369.167,438.833 366.833,441.167 365.5,444.5C 359.193,450.472 352.86,456.472 346.5,462.5C 343.167,463.833 340.833,466.167 339.5,469.5C 333.193,475.472 326.86,481.472 320.5,487.5C 317.167,488.833 314.833,491.167 313.5,494.5C 307.193,500.472 300.86,506.472 294.5,512.5C 294.565,512.062 294.399,511.728 294,511.5C 291.218,513.771 289.051,516.437 287.5,519.5C 281.193,525.472 274.86,531.472 268.5,537.5C 268.565,537.062 268.399,536.728 268,536.5C 265.546,538.441 263.713,540.775 262.5,543.5C 255.86,549.806 249.193,556.139 242.5,562.5C 242.565,562.062 242.399,561.728 242,561.5C 239.546,563.441 237.713,565.775 236.5,568.5C 229.86,574.806 223.193,581.139 216.5,587.5C 216.565,587.062 216.399,586.728 216,586.5C 213.546,588.441 211.713,590.775 210.5,593.5C 205.527,597.806 200.86,602.473 196.5,607.5C 130.833,607.5 65.1667,607.5 -0.5,607.5C -0.5,607.167 -0.5,606.833 -0.5,606.5C 104.464,506.037 209.298,405.37 314,304.5C 314.667,303.833 314.667,303.167 314,302.5C 309.938,298.269 305.771,294.269 301.5,290.5C 299.949,287.437 297.782,284.771 295,282.5C 294.601,282.728 294.435,283.062 294.5,283.5C 288.14,277.472 281.807,271.472 275.5,265.5C 273.949,262.437 271.782,259.771 269,257.5C 268.601,257.728 268.435,258.062 268.5,258.5C 262.14,252.472 255.807,246.472 249.5,240.5C 247.949,237.437 245.782,234.771 243,232.5C 242.601,232.728 242.435,233.062 242.5,233.5C 236.14,227.472 229.807,221.472 223.5,215.5C 221.949,212.437 219.782,209.771 217,207.5C 216.601,207.728 216.435,208.062 216.5,208.5C 210.14,202.472 203.807,196.472 197.5,190.5C 195.949,187.437 193.782,184.771 191,182.5C 190.601,182.728 190.435,183.062 190.5,183.5C 184.14,177.472 177.807,171.472 171.5,165.5C 169.949,162.437 167.782,159.771 165,157.5C 164.601,157.728 164.435,158.062 164.5,158.5C 158.14,152.472 151.807,146.472 145.5,140.5C 144.167,137.167 141.833,134.833 138.5,133.5C 132.14,127.472 125.807,121.472 119.5,115.5C 118.167,112.167 115.833,109.833 112.5,108.5C 106.14,102.472 99.807,96.4722 93.5,90.5C 92.1667,87.1667 89.8333,84.8333 86.5,83.5C 80.1403,77.4722 73.807,71.4722 67.5,65.5C 66.1667,62.1667 63.8333,59.8333 60.5,58.5C 54.1403,52.4722 47.807,46.4722 41.5,40.5C 40.1667,37.1667 37.8333,34.8333 34.5,33.5C 28.4737,27.8055 22.4737,22.1388 16.5,16.5C 14.8333,12.8333 12.1667,10.1667 8.5,8.5C 5.5,5.83333 2.5,3.16667 -0.5,0.5 Z"/></g>
<g><path style="opacity:0.471" fill="#4000a0" d="M 8.5,8.5 C 12.1667,10.1667 14.8333,12.8333 16.5,16.5C 13.5,14.1667 10.8333,11.5 8.5,8.5 Z"/></g>
<g><path style="opacity:0.471" fill="#4000a0" d="M 34.5,33.5 C 37.8333,34.8333 40.1667,37.1667 41.5,40.5C 38.8333,38.5 36.5,36.1667 34.5,33.5 Z"/></g>
<g><path style="opacity:0.471" fill="#4000a0" d="M 60.5,58.5 C 63.8333,59.8333 66.1667,62.1667 67.5,65.5C 64.8333,63.5 62.5,61.1667 60.5,58.5 Z"/></g>
<g><path style="opacity:0.471" fill="#4000a0" d="M 86.5,83.5 C 89.8333,84.8333 92.1667,87.1667 93.5,90.5C 90.8333,88.5 88.5,86.1667 86.5,83.5 Z"/></g>
<g><path style="opacity:0.471" fill="#4000a0" d="M 112.5,108.5 C 115.833,109.833 118.167,112.167 119.5,115.5C 116.833,113.5 114.5,111.167 112.5,108.5 Z"/></g>
<g><path style="opacity:0.471" fill="#4000a0" d="M 138.5,133.5 C 141.833,134.833 144.167,137.167 145.5,140.5C 142.833,138.5 140.5,136.167 138.5,133.5 Z"/></g>
<g><path style="opacity:0.5" fill="#4000a0" d="M 171.5,165.5 C 168.833,163.5 166.5,161.167 164.5,158.5C 164.435,158.062 164.601,157.728 165,157.5C 167.782,159.771 169.949,162.437 171.5,165.5 Z"/></g>
<g><path style="opacity:0.496" fill="#4000a0" d="M 197.5,190.5 C 194.833,188.5 192.5,186.167 190.5,183.5C 190.435,183.062 190.601,182.728 191,182.5C 193.782,184.771 195.949,187.437 197.5,190.5 Z"/></g>
<g><path style="opacity:0.496" fill="#4000a0" d="M 223.5,215.5 C 220.833,213.5 218.5,211.167 216.5,208.5C 216.435,208.062 216.601,207.728 217,207.5C 219.782,209.771 221.949,212.437 223.5,215.5 Z"/></g>
<g><path style="opacity:0.496" fill="#4000a0" d="M 249.5,240.5 C 246.833,238.5 244.5,236.167 242.5,233.5C 242.435,233.062 242.601,232.728 243,232.5C 245.782,234.771 247.949,237.437 249.5,240.5 Z"/></g>
<g><path style="opacity:0.496" fill="#4000a0" d="M 275.5,265.5 C 272.833,263.5 270.5,261.167 268.5,258.5C 268.435,258.062 268.601,257.728 269,257.5C 271.782,259.771 273.949,262.437 275.5,265.5 Z"/></g>
<g><path style="opacity:0.496" fill="#4000a0" d="M 301.5,290.5 C 298.833,288.5 296.5,286.167 294.5,283.5C 294.435,283.062 294.601,282.728 295,282.5C 297.782,284.771 299.949,287.437 301.5,290.5 Z"/></g>
<g><path style="opacity:0.5" fill="#4000a0" d="M 501.5,313.5 C 499.833,315.833 497.833,317.833 495.5,319.5C 496.713,316.775 498.546,314.441 501,312.5C 501.399,312.728 501.565,313.062 501.5,313.5 Z"/></g>
<g><path style="opacity:0.5" fill="#4000a0" d="M 475.5,338.5 C 473.833,340.833 471.833,342.833 469.5,344.5C 470.713,341.775 472.546,339.441 475,337.5C 475.399,337.728 475.565,338.062 475.5,338.5 Z"/></g>
<g><path style="opacity:0.471" fill="#4000a0" d="M 450.5,362.5 C 448.5,365.167 446.167,367.5 443.5,369.5C 444.833,366.167 447.167,363.833 450.5,362.5 Z"/></g>
<g><path style="opacity:0.466" fill="#4000a0" d="M 424.5,387.5 C 422.5,390.167 420.167,392.5 417.5,394.5C 418.833,391.167 421.167,388.833 424.5,387.5 Z"/></g>
<g><path style="opacity:0.466" fill="#4000a0" d="M 398.5,412.5 C 396.5,415.167 394.167,417.5 391.5,419.5C 392.833,416.167 395.167,413.833 398.5,412.5 Z"/></g>
<g><path style="opacity:0.466" fill="#4000a0" d="M 372.5,437.5 C 370.5,440.167 368.167,442.5 365.5,444.5C 366.833,441.167 369.167,438.833 372.5,437.5 Z"/></g>
<g><path style="opacity:0.466" fill="#4000a0" d="M 346.5,462.5 C 344.5,465.167 342.167,467.5 339.5,469.5C 340.833,466.167 343.167,463.833 346.5,462.5 Z"/></g>
<g><path style="opacity:0.466" fill="#4000a0" d="M 320.5,487.5 C 318.5,490.167 316.167,492.5 313.5,494.5C 314.833,491.167 317.167,488.833 320.5,487.5 Z"/></g>
<g><path style="opacity:0.496" fill="#4000a0" d="M 294.5,512.5 C 292.5,515.167 290.167,517.5 287.5,519.5C 289.051,516.437 291.218,513.771 294,511.5C 294.399,511.728 294.565,512.062 294.5,512.5 Z"/></g>
<g><path style="opacity:0.5" fill="#4000a0" d="M 268.5,537.5 C 266.833,539.833 264.833,541.833 262.5,543.5C 263.713,540.775 265.546,538.441 268,536.5C 268.399,536.728 268.565,537.062 268.5,537.5 Z"/></g>
<g><path style="opacity:0.5" fill="#4000a0" d="M 242.5,562.5 C 240.833,564.833 238.833,566.833 236.5,568.5C 237.713,565.775 239.546,563.441 242,561.5C 242.399,561.728 242.565,562.062 242.5,562.5 Z"/></g>
<g><path style="opacity:0.5" fill="#4000a0" d="M 216.5,587.5 C 214.833,589.833 212.833,591.833 210.5,593.5C 211.713,590.775 213.546,588.441 216,586.5C 216.399,586.728 216.565,587.062 216.5,587.5 Z"/></g>
</svg>
