<svg width="149" height="149" viewBox="0 0 149 149" fill="none" xmlns="http://www.w3.org/2000/svg">
<g id="Upload Icon">
<path id="Vector" d="M111.75 122.393C111.75 120.951 111.223 119.704 110.17 118.651C109.117 117.598 107.87 117.071 106.429 117.071C104.987 117.071 103.74 117.598 102.687 118.651C101.634 119.704 101.107 120.951 101.107 122.393C101.107 123.834 101.634 125.081 102.687 126.134C103.74 127.188 104.987 127.714 106.429 127.714C107.87 127.714 109.117 127.188 110.17 126.134C111.223 125.081 111.75 123.834 111.75 122.393ZM133.036 122.393C133.036 120.951 132.509 119.704 131.456 118.651C130.403 117.598 129.155 117.071 127.714 117.071C126.273 117.071 125.026 117.598 123.973 118.651C122.919 119.704 122.393 120.951 122.393 122.393C122.393 123.834 122.919 125.081 123.973 126.134C125.026 127.188 126.273 127.714 127.714 127.714C129.155 127.714 130.403 127.188 131.456 126.134C132.509 125.081 133.036 123.834 133.036 122.393ZM143.679 103.768V130.375C143.679 132.592 142.903 134.477 141.35 136.029C139.798 137.581 137.914 138.357 135.696 138.357H13.3036C11.0863 138.357 9.20162 137.581 7.64954 136.029C6.09745 134.477 5.32141 132.592 5.32141 130.375V103.768C5.32141 101.55 6.09745 99.6658 7.64954 98.1137C9.20162 96.5616 11.0863 95.7856 13.3036 95.7856H48.8075C49.9715 98.8897 51.9255 101.44 54.6693 103.435C57.4132 105.431 60.4758 106.428 63.8571 106.428H85.1428C88.5242 106.428 91.5868 105.431 94.3306 103.435C97.0745 101.44 99.0284 98.8897 100.193 95.7856H135.696C137.914 95.7856 139.798 96.5616 141.35 98.1137C142.903 99.6658 143.679 101.55 143.679 103.768ZM116.656 49.8883C115.713 52.1055 114.078 53.2141 111.75 53.2141H90.4643V90.4641C90.4643 91.9054 89.9377 93.1526 88.8845 94.2058C87.8313 95.259 86.5841 95.7856 85.1428 95.7856H63.8571C62.4159 95.7856 61.1687 95.259 60.1155 94.2058C59.0623 93.1526 58.5357 91.9054 58.5357 90.4641V53.2141H37.25C34.9219 53.2141 33.2866 52.1055 32.3443 49.8883C31.402 47.7264 31.79 45.814 33.5084 44.1511L70.7584 6.90109C71.7561 5.84789 73.0033 5.32129 74.5 5.32129C75.9966 5.32129 77.2439 5.84789 78.2416 6.90109L115.492 44.1511C117.21 45.814 117.598 47.7264 116.656 49.8883Z" fill="white"/>
</g>
</svg>
